<svg xmlns="http://www.w3.org/2000/svg" xmlns:xlink="http://www.w3.org/1999/xlink" width="2000" zoomAndPan="magnify" viewBox="0 0 1500 1499.999933" height="2000" preserveAspectRatio="xMidYMid meet" version="1.0"><defs><g/></defs><path fill="#f59e0b" d="M 309.632812 1184.628906 C 299.15625 1180.730469 287.332031 1179.390625 276.855469 1179.390625 C 274.210938 1191.167969 274.210938 1202.949219 276.855469 1213.378906 C 280.796875 1229.050781 288.628906 1244.769531 300.453125 1256.5 C 312.230469 1268.277344 326.652344 1276.113281 341.070312 1281.351562 C 352.890625 1283.949219 364.671875 1285.292969 376.488281 1283.949219 C 376.488281 1277.414062 376.488281 1270.875 376.488281 1265.679688 C 375.191406 1257.84375 372.546875 1251.308594 371.25 1243.46875 C 368.609375 1238.234375 364.671875 1231.691406 362.070312 1225.152344 C 358.128906 1219.914062 354.1875 1214.675781 348.949219 1209.484375 C 338.46875 1197.703125 324.050781 1189.871094 309.632812 1184.628906 Z M 371.25 519.386719 L 376.488281 519.386719 C 394.847656 516.742188 413.203125 508.949219 426.28125 497.128906 C 440.703125 486.695312 452.523438 471.023438 459.0625 454.050781 C 466.941406 435.734375 468.242188 417.421875 465.640625 399.148438 C 464.296875 392.609375 463 386.074219 460.40625 378.191406 C 459.0625 380.832031 456.464844 383.476562 455.121094 386.074219 C 431.519531 416.121094 386.96875 433.09375 373.847656 469.722656 C 367.308594 485.398438 366.007812 502.414062 371.25 519.386719 Z M 487.898438 668.363281 C 494.480469 668.363281 502.316406 668.363281 508.902344 667.066406 C 533.796875 664.421875 558.695312 655.289062 579.699219 639.617188 C 600.652344 622.601562 616.417969 601.734375 625.550781 578.179688 C 629.492188 566.449219 633.433594 553.375 634.730469 540.296875 C 630.835938 542.894531 628.195312 544.238281 625.550781 545.492188 C 573.113281 574.238281 506.257812 566.449219 489.242188 642.214844 C 487.898438 651.394531 486.601562 659.230469 487.898438 668.363281 Z M 485.300781 197.867188 C 477.421875 212.238281 470.882812 229.257812 469.585938 246.226562 C 558.699219 268.4375 578.355469 188.683594 630.835938 148.203125 L 633.433594 146.859375 C 622.957031 142.964844 612.476562 140.324219 601.953125 140.324219 C 579.699219 137.726562 556.101562 141.667969 535.097656 152.144531 C 514.140625 162.578125 497.078125 178.253906 485.300781 197.867188 Z M 524.621094 1248.664062 C 525.917969 1250.003906 527.261719 1251.304688 528.558594 1251.304688 C 540.339844 1238.230469 548.214844 1221.214844 550.859375 1204.242188 C 554.800781 1174.195312 536.441406 1138.910156 523.320312 1110.117188 C 516.734375 1116.652344 508.902344 1132.371094 504.960938 1140.207031 C 495.78125 1158.480469 493.140625 1178.089844 497.078125 1197.703125 C 501.019531 1218.617188 510.199219 1235.589844 524.621094 1248.664062 Z M 342.410156 1042.183594 L 343.707031 1042.183594 C 338.46875 1021.273438 326.648438 1002.960938 312.226562 989.882812 C 275.550781 957.238281 242.773438 968.972656 202.117188 953.296875 C 200.816406 953.296875 199.476562 953.296875 196.878906 952 C 200.816406 966.371094 204.757812 979.449219 212.597656 989.882812 C 225.714844 1010.792969 245.375 1027.808594 268.972656 1038.242188 C 292.570312 1047.425781 318.8125 1048.722656 342.410156 1042.183594 Z M 1190.625 1184.628906 C 1201.105469 1180.730469 1212.921875 1179.390625 1223.402344 1179.390625 C 1226.042969 1191.167969 1226.042969 1202.949219 1223.402344 1213.378906 C 1219.464844 1229.050781 1211.582031 1244.769531 1199.804688 1256.5 C 1187.980469 1268.277344 1173.566406 1276.113281 1159.144531 1281.351562 C 1147.367188 1283.949219 1135.546875 1285.292969 1123.769531 1283.949219 C 1123.769531 1277.414062 1123.769531 1270.875 1123.769531 1265.679688 C 1125.070312 1257.84375 1127.707031 1251.308594 1130.308594 1243.46875 C 1131.648438 1238.234375 1135.542969 1231.691406 1138.1875 1225.152344 C 1142.128906 1219.914062 1146.070312 1214.675781 1151.308594 1209.484375 C 1161.789062 1197.703125 1176.203125 1189.871094 1190.625 1184.628906 Z M 1129.011719 519.386719 L 1123.769531 519.386719 C 1105.410156 516.742188 1087.050781 508.949219 1073.929688 497.128906 C 1059.511719 486.695312 1047.734375 471.023438 1041.152344 454.050781 C 1033.3125 435.734375 1032.015625 417.421875 1034.613281 399.148438 C 1035.914062 392.609375 1037.253906 386.074219 1039.855469 378.191406 C 1041.152344 380.832031 1043.792969 383.476562 1045.09375 386.074219 C 1068.691406 416.121094 1113.292969 433.09375 1126.367188 469.722656 C 1132.949219 485.398438 1134.246094 502.414062 1129.011719 519.386719 Z M 1012.3125 668.363281 C 1005.777344 668.363281 997.894531 668.363281 991.355469 667.066406 C 966.460938 664.421875 941.519531 655.289062 920.5625 639.617188 C 899.601562 622.601562 883.84375 601.734375 874.660156 578.179688 C 870.722656 566.449219 866.824219 553.375 866.824219 540.296875 C 869.421875 542.894531 872.0625 544.238281 874.660156 545.492188 C 927.097656 574.238281 994 566.449219 1011.019531 642.214844 C 1012.3125 651.394531 1013.65625 659.230469 1012.3125 668.363281 Z M 1014.957031 197.867188 C 1022.835938 212.238281 1029.375 229.257812 1030.671875 246.226562 C 941.519531 268.4375 921.859375 188.683594 869.421875 148.203125 L 866.820312 146.859375 C 877.300781 142.964844 887.78125 140.324219 898.257812 140.324219 C 920.558594 137.726562 944.15625 141.667969 965.113281 152.144531 C 986.117188 162.578125 1003.136719 178.253906 1014.957031 197.867188 Z M 975.640625 1248.664062 C 974.296875 1250.003906 973 1251.304688 971.699219 1251.304688 C 959.875 1238.230469 952.039062 1221.214844 949.398438 1204.242188 C 945.460938 1174.195312 963.816406 1138.910156 976.9375 1110.117188 C 983.476562 1116.652344 991.359375 1132.371094 995.296875 1140.207031 C 1004.476562 1158.480469 1007.074219 1178.089844 1003.136719 1197.703125 C 999.238281 1218.617188 990.058594 1235.589844 975.640625 1248.664062 Z M 1157.847656 1042.183594 L 1156.546875 1042.183594 C 1161.789062 1021.273438 1173.566406 1002.960938 1187.980469 989.882812 C 1224.699219 957.238281 1257.480469 968.972656 1298.140625 953.296875 C 1299.441406 953.296875 1300.738281 953.296875 1303.378906 952 C 1299.441406 966.371094 1295.5 979.449219 1287.664062 989.882812 C 1274.542969 1010.792969 1254.882812 1027.808594 1231.289062 1038.242188 C 1207.6875 1047.425781 1181.445312 1048.722656 1157.847656 1042.183594 Z M 1083.109375 1297.027344 C 1071.332031 1315.339844 1055.617188 1331.015625 1038.554688 1341.492188 C 1017.550781 1354.523438 995.296875 1361.0625 970.402344 1362.40625 C 946.800781 1363.703125 923.203125 1358.464844 902.199219 1348.03125 C 881.242188 1337.550781 862.878906 1321.878906 849.761719 1300.964844 L 848.464844 1299.667969 C 872.0625 1312.699219 899.597656 1317.9375 927.097656 1315.339844 C 957.277344 1311.402344 983.472656 1298.324219 1004.476562 1280.054688 C 1024.136719 1260.441406 1039.855469 1234.289062 1045.09375 1205.542969 C 1050.332031 1176.792969 1046.433594 1148.042969 1033.3125 1121.894531 C 1014.957031 1082.714844 988.714844 1068.292969 952.039062 1050.023438 C 949.398438 1121.894531 898.257812 1132.371094 908.78125 1209.484375 C 911.378906 1231.691406 920.5625 1252.601562 933.683594 1270.875 C 929.742188 1272.214844 925.800781 1272.214844 923.203125 1273.515625 C 902.203125 1274.816406 882.542969 1270.875 865.480469 1261.738281 C 849.761719 1252.601562 836.644531 1238.230469 827.464844 1221.210938 C 823.566406 1182.03125 822.222656 1100.976562 831.402344 1065.691406 C 856.300781 980.742188 975.640625 978.148438 1041.152344 1018.632812 C 1076.574219 1040.886719 1102.8125 1070.933594 1147.371094 1082.710938 C 1180.148438 1091.84375 1214.226562 1089.203125 1247.003906 1076.171875 C 1279.785156 1063.09375 1305.976562 1040.882812 1323.039062 1012.089844 C 1341.398438 984.640625 1349.28125 950.703125 1346.636719 915.414062 L 1342.695312 880.125 L 1313.859375 899.695312 C 1304.679688 906.234375 1294.199219 910.171875 1283.722656 914.066406 C 1236.523438 931.085938 1208.984375 915.410156 1160.492188 958.535156 C 1140.832031 975.507812 1126.367188 997.714844 1118.53125 1023.867188 C 1102.8125 1014.730469 1068.695312 972.90625 984.820312 953.292969 C 986.121094 951.996094 988.71875 950.699219 990.058594 949.351562 C 1011.019531 929.785156 1029.375 907.53125 1043.796875 884.023438 C 1049.035156 873.585938 1045.09375 860.511719 1035.917969 855.273438 C 1025.433594 848.734375 1012.316406 852.675781 1007.078125 863.113281 C 995.300781 882.726562 979.539062 902.339844 962.523438 918.011719 C 916.625 957.238281 874.660156 955.894531 831.40625 993.820312 C 830.105469 995.121094 827.46875 996.417969 826.164062 997.71875 C 820.925781 934.984375 831.40625 867.050781 883.84375 826.527344 C 919.261719 796.480469 967.757812 788.597656 1017.550781 801.675781 C 1041.152344 806.917969 1063.453125 817.390625 1083.109375 831.765625 L 1084.453125 833.066406 C 1135.546875 863.113281 1182.746094 880.128906 1226.046875 880.128906 C 1270.601562 880.128906 1309.917969 864.410156 1345.339844 831.765625 L 1346.636719 830.425781 C 1365 810.855469 1378.117188 786.003906 1385.957031 759.851562 C 1392.535156 733.746094 1392.535156 706.25 1387.296875 678.84375 C 1380.714844 651.394531 1367.589844 626.542969 1350.578125 605.632812 C 1332.21875 586.0625 1309.917969 569.046875 1285.023438 559.910156 C 1275.84375 554.671875 1265.363281 550.777344 1253.539062 546.835938 C 1270.601562 519.386719 1279.785156 489.339844 1282.382812 459.246094 C 1285.023438 418.765625 1275.84375 376.941406 1254.882812 340.3125 C 1232.585938 303.726562 1201.105469 276.277344 1163.085938 259.261719 C 1135.546875 246.230469 1104.109375 239.691406 1072.632812 240.992188 C 1070.03125 217.4375 1062.152344 195.226562 1050.332031 175.613281 C 1034.613281 150.808594 1012.3125 128.597656 983.476562 114.222656 C 955.9375 101.144531 924.5 94.609375 894.320312 98.503906 C 870.722656 99.847656 832.707031 112.925781 798.628906 150.808594 C 858.941406 171.71875 866.828125 227.917969 919.265625 265.800781 C 929.746094 273.683594 940.21875 280.21875 952.042969 285.414062 C 945.464844 289.355469 940.21875 294.546875 934.980469 301.085938 C 906.144531 329.878906 886.484375 366.464844 878.605469 408.289062 C 877.308594 420.019531 883.84375 430.5 895.664062 433.09375 C 907.441406 434.4375 917.921875 427.902344 920.5625 416.125 C 925.804688 382.136719 941.523438 353.386719 963.820312 329.878906 C 987.417969 307.621094 1016.257812 290.652344 1050.335938 285.410156 C 1083.113281 278.875 1117.238281 282.8125 1146.074219 297.1875 C 1176.210938 310.261719 1201.109375 332.472656 1218.167969 361.222656 C 1235.1875 390.011719 1243.066406 423.957031 1240.46875 455.304688 C 1237.828125 484.09375 1228.648438 511.546875 1211.585938 535.054688 C 1199.804688 532.457031 1185.386719 528.515625 1170.96875 525.921875 C 1176.207031 502.414062 1174.910156 477.558594 1167.027344 455.304688 C 1149.96875 409.582031 1063.453125 376.9375 1033.316406 311.5625 L 1024.136719 323.335938 C 1007.078125 344.25 996.597656 367.761719 992.65625 392.613281 C 988.71875 418.765625 991.359375 444.871094 1001.839844 468.382812 C 1011.019531 493.234375 1026.734375 514.148438 1047.738281 529.816406 C 1067.394531 545.488281 1090.992188 557.3125 1117.234375 559.90625 C 1153.910156 565.101562 1184.085938 571.640625 1210.289062 576.878906 C 1233.882812 583.417969 1253.539062 589.957031 1266.664062 596.492188 L 1267.960938 597.789062 C 1287.667969 605.628906 1304.679688 617.402344 1317.800781 633.078125 C 1330.917969 648.75 1341.398438 667.066406 1345.339844 687.980469 C 1350.578125 708.890625 1350.578125 729.804688 1345.339844 749.414062 C 1340.097656 769.027344 1329.578125 786 1315.160156 801.671875 C 1291.5625 823.882812 1262.722656 836.957031 1232.585938 838.300781 C 1235.183594 835.660156 1236.523438 834.363281 1237.824219 831.765625 C 1257.480469 812.152344 1269.304688 784.703125 1269.304688 754.652344 C 1267.960938 724.605469 1256.183594 697.113281 1236.523438 677.5 C 1215.523438 655.289062 1187.980469 644.855469 1157.847656 642.214844 C 1117.230469 638.316406 1090.988281 647.453125 1054.269531 659.230469 C 1054.269531 651.390625 1054.269531 642.214844 1051.675781 634.421875 C 1030.671875 537.699219 961.21875 545.488281 894.316406 508.949219 C 882.539062 502.414062 872.0625 494.53125 861.582031 484.097656 L 832.699219 457.945312 L 826.160156 495.875 C 820.921875 529.816406 823.566406 563.804688 836.640625 593.851562 C 848.460938 623.945312 868.117188 651.394531 895.660156 672.308594 C 921.859375 693.21875 954.636719 704.996094 987.414062 708.890625 C 1001.832031 710.191406 1017.550781 710.191406 1033.3125 708.890625 C 1079.167969 702.355469 1102.808594 678.84375 1153.90625 684.039062 C 1174.90625 685.382812 1193.265625 691.921875 1206.339844 706.25 C 1219.460938 719.324219 1226.042969 736.339844 1227.339844 754.65625 C 1227.339844 772.925781 1219.460938 791.242188 1207.683594 803.019531 C 1195.859375 816.046875 1181.441406 823.886719 1164.421875 825.226562 C 1146.066406 818.6875 1126.363281 809.507812 1106.703125 796.480469 C 1083.105469 780.761719 1055.609375 767.6875 1028.070312 761.191406 C 980.871094 748.074219 948.09375 748.074219 906.132812 765.089844 C 906.132812 757.25 906.132812 748.074219 904.835938 740.28125 C 900.898438 723.265625 894.3125 708.890625 883.835938 695.816406 C 873.355469 682.78125 860.238281 673.601562 844.519531 665.765625 C 834.039062 661.828125 822.214844 665.765625 816.980469 676.246094 C 813.039062 686.675781 816.980469 699.710938 827.460938 704.992188 C 836.636719 708.890625 844.519531 714.128906 851.058594 721.964844 C 893.015625 774.222656 836.636719 806.914062 814.382812 842.195312 C 776.363281 904.933594 778.964844 984.640625 790.78125 1055.257812 C 778.964844 1100.976562 780.261719 1189.863281 786.84375 1238.226562 C 796.023438 1298.320312 818.277344 1353.222656 882.535156 1384.609375 C 910.074219 1398.984375 941.511719 1405.523438 972.992188 1404.222656 C 1004.46875 1402.882812 1034.605469 1393.746094 1060.847656 1378.074219 C 1081.804688 1363.699219 1100.164062 1346.683594 1114.582031 1324.472656 C 1132.945312 1327.113281 1152.601562 1325.769531 1169.664062 1321.875 C 1191.917969 1315.335938 1214.21875 1302.261719 1229.9375 1285.289062 C 1247 1266.972656 1258.773438 1246.058594 1264.058594 1222.554688 C 1269.296875 1200.292969 1267.957031 1175.488281 1260.121094 1153.277344 L 1256.179688 1140.203125 L 1243.058594 1138.902344 C 1220.757812 1134.964844 1198.503906 1137.5625 1177.503906 1144.097656 C 1156.546875 1151.933594 1136.886719 1163.707031 1121.125 1180.722656 C 1114.585938 1187.265625 1108.046875 1195.101562 1102.808594 1204.234375 C 1097.523438 1212.070312 1093.628906 1221.207031 1089.6875 1230.386719 C 1087.046875 1239.523438 1084.453125 1250 1083.109375 1260.433594 C 1081.808594 1270.867188 1081.808594 1281.34375 1081.808594 1291.824219 C 1081.808594 1293.128906 1083.109375 1295.726562 1083.109375 1297.027344 Z M 895.660156 297.1875 C 895.660156 278.871094 881.246094 264.542969 864.1875 264.542969 C 845.824219 264.542969 831.40625 278.871094 831.40625 297.1875 C 831.40625 315.503906 845.824219 329.875 864.1875 329.875 C 881.246094 329.878906 895.660156 315.503906 895.660156 297.1875 Z M 668.851562 297.1875 C 668.851562 278.871094 654.433594 264.542969 636.074219 264.542969 C 619.011719 264.542969 604.59375 278.871094 604.59375 297.1875 C 604.59375 315.503906 619.011719 329.875 636.074219 329.875 C 654.433594 329.878906 668.851562 315.503906 668.851562 297.1875 Z M 1115.886719 933.683594 C 1115.886719 915.414062 1101.46875 901.039062 1083.109375 901.039062 C 1064.75 901.039062 1050.332031 915.414062 1050.332031 933.683594 C 1050.332031 952 1064.75 966.375 1083.109375 966.375 C 1101.46875 966.375 1115.886719 952 1115.886719 933.683594 Z M 449.882812 933.683594 C 449.882812 915.414062 435.464844 901.039062 417.105469 901.039062 C 398.789062 901.039062 384.371094 915.414062 384.371094 933.683594 C 384.371094 952 398.789062 966.375 417.105469 966.375 C 435.464844 966.375 449.882812 952 449.882812 933.683594 Z M 190.335938 518.085938 C 190.335938 499.769531 175.875 485.398438 157.558594 485.398438 C 139.199219 485.398438 124.78125 499.769531 124.78125 518.085938 C 124.78125 536.355469 139.199219 550.773438 157.558594 550.773438 C 175.875 550.773438 190.335938 536.355469 190.335938 518.085938 Z M 1375.472656 518.085938 C 1375.472656 499.769531 1361.058594 485.398438 1342.695312 485.398438 C 1324.339844 485.398438 1309.917969 499.769531 1309.917969 518.085938 C 1309.917969 536.355469 1324.339844 550.773438 1342.695312 550.773438 C 1361.058594 550.773438 1375.472656 536.355469 1375.472656 518.085938 Z M 1168.324219 179.550781 C 1168.324219 161.28125 1153.90625 146.863281 1135.542969 146.863281 C 1117.230469 146.863281 1102.808594 161.28125 1102.808594 179.550781 C 1102.808594 197.867188 1117.230469 212.242188 1135.542969 212.242188 C 1153.90625 212.242188 1168.324219 197.867188 1168.324219 179.550781 Z M 398.785156 179.550781 C 398.785156 161.28125 383.023438 146.863281 364.664062 146.863281 C 347.648438 146.863281 331.886719 161.28125 331.886719 179.550781 C 331.886719 197.867188 347.648438 212.242188 364.664062 212.242188 C 383.023438 212.242188 398.785156 197.867188 398.785156 179.550781 Z M 436.808594 1123.191406 C 436.808594 1104.921875 421.046875 1090.550781 402.683594 1090.550781 C 385.667969 1090.550781 369.90625 1104.921875 369.90625 1123.191406 C 369.90625 1141.507812 385.667969 1155.882812 402.683594 1155.882812 C 421.042969 1155.882812 436.808594 1141.507812 436.808594 1123.191406 Z M 1130.308594 1123.191406 C 1130.308594 1104.921875 1114.589844 1090.550781 1097.527344 1090.550781 C 1079.167969 1090.550781 1063.453125 1104.921875 1063.453125 1123.191406 C 1063.453125 1141.507812 1079.167969 1155.882812 1097.527344 1155.882812 C 1114.589844 1155.882812 1130.308594 1141.507812 1130.308594 1123.191406 Z M 1357.117188 1115.355469 C 1357.117188 1097.082031 1342.695312 1082.714844 1324.339844 1082.714844 C 1305.976562 1082.714844 1291.5625 1097.082031 1291.5625 1115.355469 C 1291.5625 1133.671875 1305.976562 1148.042969 1324.339844 1148.042969 C 1342.695312 1148.042969 1357.117188 1133.671875 1357.117188 1115.355469 Z M 208.652344 1115.355469 C 208.652344 1097.082031 194.234375 1082.714844 175.875 1082.714844 C 157.558594 1082.714844 143.140625 1097.082031 143.140625 1115.355469 C 143.140625 1133.671875 157.558594 1148.042969 175.875 1148.042969 C 194.234375 1148.042969 208.652344 1133.671875 208.652344 1115.355469 Z M 417.101562 1297.027344 C 428.921875 1315.339844 444.640625 1331.015625 461.703125 1341.492188 C 482.65625 1354.523438 504.960938 1361.0625 529.855469 1362.40625 C 553.453125 1363.703125 577.054688 1358.464844 598.054688 1348.03125 C 619.011719 1337.550781 637.371094 1321.878906 650.492188 1300.964844 L 651.789062 1299.667969 C 628.1875 1312.699219 600.652344 1317.9375 573.109375 1315.339844 C 542.972656 1311.402344 516.734375 1298.324219 495.777344 1280.054688 C 476.117188 1260.441406 460.402344 1234.289062 455.117188 1205.542969 C 449.878906 1176.792969 453.820312 1148.042969 466.941406 1121.894531 C 486.597656 1082.714844 511.496094 1068.292969 548.214844 1050.023438 C 550.859375 1121.894531 601.949219 1132.371094 591.472656 1209.484375 C 588.875 1231.691406 579.695312 1252.601562 566.574219 1270.875 C 570.515625 1272.214844 574.457031 1272.214844 577.054688 1273.515625 C 598.054688 1274.816406 617.714844 1270.875 634.730469 1261.738281 C 650.492188 1252.601562 663.570312 1238.230469 672.746094 1221.210938 C 676.6875 1182.03125 678.03125 1100.976562 668.851562 1065.691406 C 643.90625 980.742188 524.613281 978.148438 459.058594 1018.632812 C 423.683594 1040.886719 397.441406 1070.933594 352.882812 1082.710938 C 320.105469 1091.84375 286.027344 1089.203125 253.25 1076.171875 C 220.472656 1063.09375 194.230469 1040.882812 177.214844 1012.089844 C 158.855469 984.640625 150.976562 950.703125 153.617188 915.414062 L 157.558594 880.125 L 186.398438 899.695312 C 195.578125 906.234375 206.054688 910.171875 216.53125 914.066406 C 263.730469 931.085938 291.269531 915.410156 339.765625 958.535156 C 359.425781 975.507812 373.84375 997.714844 381.722656 1023.867188 C 398.785156 1014.730469 431.519531 972.90625 515.4375 953.292969 C 514.140625 951.996094 511.496094 950.699219 510.199219 949.351562 C 489.242188 929.785156 470.882812 907.53125 456.464844 884.023438 C 451.226562 873.585938 455.121094 860.511719 464.300781 855.273438 C 474.824219 848.734375 487.902344 852.675781 493.140625 863.113281 C 504.960938 882.726562 520.679688 902.339844 537.738281 918.011719 C 583.636719 957.238281 625.550781 955.894531 668.851562 993.820312 C 670.152344 995.121094 672.75 996.417969 674.089844 997.71875 C 679.328125 934.984375 668.851562 867.050781 616.414062 826.527344 C 580.992188 796.480469 532.5 788.597656 482.65625 801.675781 C 459.058594 806.917969 436.804688 817.390625 417.101562 831.765625 L 415.800781 833.066406 C 364.664062 863.113281 317.46875 880.128906 274.210938 880.128906 C 229.652344 880.128906 190.335938 864.410156 154.917969 831.765625 L 153.617188 830.425781 C 135.257812 810.855469 122.136719 786.003906 114.253906 759.851562 C 107.71875 733.746094 107.71875 706.25 112.957031 678.84375 C 119.539062 651.394531 132.613281 626.542969 149.675781 605.632812 C 168.035156 586.0625 190.335938 569.046875 215.230469 559.910156 C 224.414062 554.671875 234.886719 550.777344 246.667969 546.835938 C 229.652344 519.386719 220.46875 489.339844 217.828125 459.246094 C 215.230469 418.765625 224.410156 376.941406 245.371094 340.3125 C 267.667969 303.726562 299.148438 276.277344 337.167969 259.261719 C 364.664062 246.230469 396.144531 239.691406 427.625 240.992188 C 430.222656 217.4375 438.101562 195.226562 449.878906 175.613281 C 465.640625 150.808594 487.898438 128.597656 516.734375 114.222656 C 544.277344 101.144531 575.757812 94.609375 605.890625 98.503906 C 629.492188 99.847656 667.511719 112.925781 701.632812 150.808594 C 641.3125 171.71875 633.433594 227.917969 580.996094 265.800781 C 570.515625 273.683594 560.039062 280.21875 548.214844 285.414062 C 554.800781 289.355469 560.039062 294.546875 565.277344 301.085938 C 594.117188 329.878906 613.777344 366.464844 621.65625 408.289062 C 622.957031 420.019531 616.417969 430.5 604.597656 433.09375 C 592.820312 434.4375 582.296875 427.902344 579.699219 416.125 C 574.460938 382.136719 558.699219 353.386719 536.445312 329.878906 C 512.84375 307.621094 484.007812 290.652344 449.886719 285.410156 C 417.105469 278.875 383.027344 282.8125 354.191406 297.1875 C 324.054688 310.261719 299.15625 332.472656 282.09375 361.222656 C 265.035156 390.011719 257.199219 423.957031 259.796875 455.304688 C 262.4375 484.09375 271.617188 511.546875 288.632812 535.054688 C 300.453125 532.457031 314.875 528.515625 329.292969 525.921875 C 324.054688 502.414062 325.351562 477.558594 333.234375 455.304688 C 350.25 409.582031 436.808594 376.9375 466.945312 311.5625 L 476.125 323.335938 C 493.140625 344.25 503.664062 367.761719 507.605469 392.613281 C 511.503906 418.765625 508.90625 444.871094 498.425781 468.382812 C 489.246094 493.234375 473.480469 514.148438 452.527344 529.816406 C 432.871094 545.488281 409.269531 557.3125 383.027344 559.90625 C 346.3125 565.101562 316.171875 571.640625 289.976562 576.878906 C 266.375 583.417969 246.675781 589.957031 233.597656 596.492188 L 232.253906 597.789062 C 212.597656 605.628906 195.582031 617.402344 182.460938 633.078125 C 169.339844 648.75 158.863281 667.066406 154.921875 687.980469 C 149.683594 708.890625 149.683594 729.804688 154.921875 749.414062 C 160.160156 769.027344 170.636719 786 185.058594 801.671875 C 208.660156 823.882812 237.539062 836.957031 267.675781 838.300781 C 265.035156 835.660156 263.734375 834.363281 262.4375 831.765625 C 242.78125 812.152344 230.957031 784.703125 230.957031 754.652344 C 232.253906 724.605469 244.078125 697.113281 263.734375 677.5 C 284.691406 655.289062 312.234375 644.855469 342.414062 642.214844 C 383.03125 638.316406 410.566406 647.453125 445.988281 659.230469 C 445.988281 651.390625 447.285156 642.214844 448.585938 634.421875 C 469.589844 537.699219 539.039062 545.488281 605.898438 508.949219 C 617.71875 502.414062 628.195312 494.53125 638.675781 484.097656 L 667.515625 457.945312 L 674.097656 495.875 C 679.335938 529.816406 676.695312 563.804688 664.914062 593.851562 C 651.792969 623.945312 632.136719 651.394531 604.597656 672.308594 C 578.355469 693.21875 545.621094 704.996094 512.839844 708.890625 C 498.421875 710.191406 482.660156 710.191406 466.941406 708.890625 C 421.042969 702.355469 397.445312 678.84375 346.304688 684.039062 C 325.347656 685.382812 306.988281 691.921875 293.867188 706.25 C 280.792969 719.324219 274.210938 736.339844 272.910156 754.65625 C 272.910156 772.925781 280.792969 791.242188 292.570312 803.019531 C 304.390625 816.046875 318.808594 823.886719 335.828125 825.226562 C 354.1875 818.6875 373.847656 809.507812 393.503906 796.480469 C 417.101562 780.761719 444.640625 767.6875 472.179688 761.191406 C 519.375 748.074219 552.15625 748.074219 594.113281 765.089844 C 594.113281 757.25 594.113281 748.074219 595.414062 740.28125 C 599.355469 723.265625 605.890625 708.890625 616.414062 695.816406 C 626.890625 682.78125 640.011719 673.601562 655.730469 665.765625 C 666.207031 661.828125 678.027344 665.765625 683.269531 676.246094 C 687.167969 686.675781 683.269531 699.710938 672.746094 704.992188 C 663.566406 708.890625 655.730469 714.128906 649.148438 721.964844 C 607.234375 774.222656 663.566406 806.914062 685.867188 842.195312 C 723.886719 904.933594 722.585938 984.640625 709.464844 1055.257812 C 721.289062 1100.976562 719.945312 1189.863281 713.40625 1238.226562 C 704.226562 1298.320312 681.925781 1353.222656 617.710938 1384.609375 C 590.171875 1398.984375 558.691406 1405.523438 527.257812 1404.222656 C 495.777344 1402.882812 465.640625 1393.746094 439.398438 1378.074219 C 418.441406 1363.699219 400.082031 1346.683594 385.664062 1324.472656 C 367.304688 1327.113281 347.648438 1325.769531 330.585938 1321.875 C 308.289062 1315.335938 287.332031 1302.261719 270.269531 1285.289062 C 253.253906 1266.972656 241.429688 1246.058594 236.191406 1222.554688 C 230.953125 1200.292969 232.25 1175.488281 240.132812 1153.277344 L 244.070312 1140.203125 L 257.195312 1138.902344 C 279.449219 1134.964844 301.75 1137.5625 322.753906 1144.097656 C 343.707031 1151.933594 363.367188 1163.707031 379.082031 1180.722656 C 385.664062 1187.265625 392.207031 1195.101562 397.441406 1204.234375 C 402.679688 1212.070312 406.625 1221.207031 410.566406 1230.386719 C 413.207031 1239.523438 415.800781 1250 417.101562 1260.433594 C 418.445312 1270.867188 418.445312 1281.34375 418.445312 1291.824219 C 418.445312 1293.128906 417.101562 1295.726562 417.101562 1297.027344 Z M 417.101562 1297.027344 " fill-opacity="1" fill-rule="nonzero"/><g fill="#000000" fill-opacity="1"><g transform="translate(612.555797, 794.260808)"><g><path d="M 1.703125 0.09375 C 1.484375 0.09375 1.296875 0.015625 1.140625 -0.140625 C 0.984375 -0.304688 0.90625 -0.492188 0.90625 -0.703125 C 0.90625 -0.921875 0.984375 -1.109375 1.140625 -1.265625 C 1.296875 -1.421875 1.484375 -1.5 1.703125 -1.5 C 1.921875 -1.5 2.101562 -1.421875 2.25 -1.265625 C 2.40625 -1.109375 2.484375 -0.921875 2.484375 -0.703125 C 2.484375 -0.492188 2.40625 -0.304688 2.25 -0.140625 C 2.101562 0.015625 1.921875 0.09375 1.703125 0.09375 Z M 1.703125 0.09375 "/></g></g></g></svg>